<svg width="16" height="18" viewBox="0 0 16 18" fill="none" xmlns="http://www.w3.org/2000/svg">
<rect y="0.262665" width="16" height="17.6467" rx="2" fill="#EDF9F2"/>
<path d="M5.92563 8.70777C5.46168 8.19656 4.67115 8.15824 4.15994 8.6222C3.64873 9.08615 3.61041 9.87668 4.07436 10.3879L5.92563 8.70777ZM7.2944 12.076L6.36876 12.916C6.60988 13.1817 6.95354 13.331 7.31229 13.3258C7.67104 13.3207 8.01028 13.1617 8.2437 12.8892L7.2944 12.076ZM12.6947 7.6934C13.1438 7.16911 13.0829 6.38 12.5586 5.93088C12.0343 5.48175 11.2452 5.54267 10.7961 6.06696L12.6947 7.6934ZM4.07436 10.3879L6.36876 12.916L8.22003 11.2359L5.92563 8.70777L4.07436 10.3879ZM8.2437 12.8892L12.6947 7.6934L10.7961 6.06696L6.3451 11.2627L8.2437 12.8892Z" fill="#47BF7C"/>
</svg>
